<svg width="1280" height="720" viewBox="0 0 1280 720" fill="none" xmlns="http://www.w3.org/2000/svg">
  <rect width="1280" height="720" fill="#F5F7FB"/>
  <rect x="48" y="40" width="1184" height="640" rx="28" fill="white" stroke="#DCE3F0"/>
  <rect x="88" y="92" width="220" height="536" rx="24" fill="#0F172A"/>
  <rect x="108" y="128" width="110" height="18" rx="9" fill="#38BDF8"/>
  <rect x="108" y="180" width="160" height="14" rx="7" fill="#334155"/>
  <rect x="108" y="214" width="132" height="14" rx="7" fill="#334155"/>
  <rect x="108" y="248" width="148" height="14" rx="7" fill="#334155"/>
  <rect x="344" y="96" width="280" height="140" rx="24" fill="#0F766E"/>
  <rect x="648" y="96" width="280" height="140" rx="24" fill="#1D4ED8"/>
  <rect x="952" y="96" width="232" height="140" rx="24" fill="#F97316"/>
  <rect x="344" y="272" width="544" height="320" rx="24" fill="#F8FAFC" stroke="#DCE3F0"/>
  <rect x="912" y="272" width="272" height="320" rx="24" fill="#F8FAFC" stroke="#DCE3F0"/>
  <text x="344" y="70" fill="#0F172A" font-family="Arial, sans-serif" font-size="28" font-weight="700">SaaSKit Lite Dashboard</text>
  <text x="376" y="152" fill="white" font-family="Arial, sans-serif" font-size="16">Products</text>
  <text x="376" y="196" fill="white" font-family="Arial, sans-serif" font-size="44" font-weight="700">15</text>
  <text x="680" y="152" fill="white" font-family="Arial, sans-serif" font-size="16">Users</text>
  <text x="680" y="196" fill="white" font-family="Arial, sans-serif" font-size="44" font-weight="700">5</text>
  <text x="984" y="152" fill="white" font-family="Arial, sans-serif" font-size="16">Admins</text>
  <text x="984" y="196" fill="white" font-family="Arial, sans-serif" font-size="44" font-weight="700">1</text>
  <text x="376" y="324" fill="#0F172A" font-family="Arial, sans-serif" font-size="20" font-weight="700">Revenue Snapshot</text>
  <polyline points="376,520 460,456 542,486 632,392 716,412 824,334" fill="none" stroke="#0F766E" stroke-width="8" stroke-linecap="round" stroke-linejoin="round"/>
  <text x="944" y="324" fill="#0F172A" font-family="Arial, sans-serif" font-size="20" font-weight="700">Recent Products</text>
  <rect x="944" y="360" width="208" height="64" rx="16" fill="#E2E8F0"/>
  <rect x="944" y="444" width="208" height="64" rx="16" fill="#E2E8F0"/>
  <rect x="944" y="528" width="208" height="64" rx="16" fill="#E2E8F0"/>
</svg>
